HIERARCHY
ROOT hip
{
  OFFSET 0 0 0
  CHANNELS 6 Xposition Yposition Zposition Zrotation Yrotation Xrotation
  JOINT abdomen
  {
    OFFSET 0 20.6881 -0.73152
    CHANNELS 3 Zrotation Xrotation Yrotation
    JOINT chest
    {
      OFFSET 0 11.7043 -0.48768
      CHANNELS 3 Zrotation Xrotation Yrotation
      JOINT neck
      {
        OFFSET 0 22.1894 -2.19456
        CHANNELS 3 Zrotation Xrotation Yrotation
        JOINT head
        {
          OFFSET -0.24384 7.07133 1.2192
          CHANNELS 3 Zrotation Xrotation Yrotation
          JOINT leftEye
          {
            OFFSET 4.14528 8.04674 8.04672
            CHANNELS 3 Zrotation Xrotation Yrotation
            End Site
            {
              OFFSET 1 0 0
            }
          }
          JOINT rightEye
          {
            OFFSET -3.6576 8.04674 8.04672
            CHANNELS 3 Zrotation Xrotation Yrotation
            End Site
            {
              OFFSET 1 0 0
            }
          }
        }
      }
      JOINT rCollar
      {
        OFFSET -2.68224 19.2634 -4.8768
        CHANNELS 3 Zrotation Xrotation Yrotation
        JOINT rShldr
        {
          OFFSET -8.77824 -1.95073 1.46304
          CHANNELS 3 Zrotation Xrotation Yrotation
          JOINT rForeArm
          {
            OFFSET -28.1742 -1.7115 0.48768
            CHANNELS 3 Zrotation Xrotation Yrotation
            JOINT rHand
            {
              OFFSET -22.5879 0.773209 7.07136
              CHANNELS 3 Zrotation Xrotation Yrotation
              JOINT rThumb1
              {
                OFFSET -1.2192 -0.487915 3.41376
                CHANNELS 3 Zrotation Xrotation Yrotation
                JOINT rThumb2
                {
                  OFFSET -3.37035 -0.52449 3.41376
                  CHANNELS 3 Zrotation Xrotation Yrotation
                  End Site
                  {
                    OFFSET -1.78271 -1.18214 1.43049
                  }
                }
              }
              JOINT rIndex1
              {
                OFFSET -7.75947 0.938293 5.60832
                CHANNELS 3 Zrotation Xrotation Yrotation
                JOINT rIndex2
                {
                  OFFSET -2.54057 -0.884171 1.56538
                  CHANNELS 3 Zrotation Xrotation Yrotation
                  End Site
                  {
                    OFFSET -1.62519 -0.234802 1.16502
                  }
                }
              }
              JOINT rMid1
              {
                OFFSET -8.24714 1.18213 3.41376
                CHANNELS 3 Zrotation Xrotation Yrotation
                JOINT rMid2
                {
                  OFFSET -3.10165 -0.590103 1.0647
                  CHANNELS 3 Zrotation Xrotation Yrotation
                  End Site
                  {
                    OFFSET -2.48547 -0.328903 0.83742
                  }
                }
              }
              JOINT rRing1
              {
                OFFSET -8.82822 0.546677 1.51678
                CHANNELS 3 Zrotation Xrotation Yrotation
                JOINT rRing2
                {
                  OFFSET -2.60934 -0.819778 -0.0198488
                  CHANNELS 3 Zrotation Xrotation Yrotation
                  End Site
                  {
                    OFFSET -2.33842 -0.294052 0.168128
                  }
                }
              }
              JOINT rPinky1
              {
                OFFSET -8.27202 -0.0477905 -0.4584
                CHANNELS 3 Zrotation Xrotation Yrotation
                JOINT rPinky2
                {
                  OFFSET -1.82734 -0.647385 -0.700984
                  CHANNELS 3 Zrotation Xrotation Yrotation
                  End Site
                  {
                    OFFSET -1.69225 -0.51767 -0.607171
                  }
                }
              }
            }
          }
        }
      }
      JOINT lCollar
      {
        OFFSET 2.68224 19.2634 -4.8768
        CHANNELS 3 Zrotation Xrotation Yrotation
        JOINT lShldr
        {
          OFFSET 8.77824 -1.95073 1.46304
          CHANNELS 3 Zrotation Xrotation Yrotation
          JOINT lForeArm
          {
            OFFSET 28.1742 -1.7115 0.48768
            CHANNELS 3 Zrotation Xrotation Yrotation
            JOINT lHand
            {
              OFFSET 22.5879 0.773209 7.07136
              CHANNELS 3 Zrotation Xrotation Yrotation
              JOINT lThumb1
              {
                OFFSET 1.2192 -0.487915 3.41376
                CHANNELS 3 Zrotation Xrotation Yrotation
                JOINT lThumb2
                {
                  OFFSET 3.37035 -0.52449 3.41376
                  CHANNELS 3 Zrotation Xrotation Yrotation
                  End Site
                  {
                    OFFSET 1.78271 -1.18214 1.43049
                  }
                }
              }
              JOINT lIndex1
              {
                OFFSET 7.75947 0.938293 5.60832
                CHANNELS 3 Zrotation Xrotation Yrotation
                JOINT lIndex2
                {
                  OFFSET 2.54057 -0.884171 1.56538
                  CHANNELS 3 Zrotation Xrotation Yrotation
                  End Site
                  {
                    OFFSET 1.62519 -0.234802 1.16502
                  }
                }
              }
              JOINT lMid1
              {
                OFFSET 8.24714 1.18213 3.41376
                CHANNELS 3 Zrotation Xrotation Yrotation
                JOINT lMid2
                {
                  OFFSET 3.10165 -0.590103 1.0647
                  CHANNELS 3 Zrotation Xrotation Yrotation
                  End Site
                  {
                    OFFSET 2.48547 -0.328903 0.83742
                  }
                }
              }
              JOINT lRing1
              {
                OFFSET 8.82822 0.546677 1.51678
                CHANNELS 3 Zrotation Xrotation Yrotation
                JOINT lRing2
                {
                  OFFSET 2.60934 -0.819778 -0.0198488
                  CHANNELS 3 Zrotation Xrotation Yrotation
                  End Site
                  {
                    OFFSET 2.33842 -0.294052 0.168128
                  }
                }
              }
              JOINT lPinky1
              {
                OFFSET 8.27202 -0.0477905 -0.4584
                CHANNELS 3 Zrotation Xrotation Yrotation
                JOINT lPinky2
                {
                  OFFSET 1.82734 -0.647385 -0.700984
                  CHANNELS 3 Zrotation Xrotation Yrotation
                  End Site
                  {
                    OFFSET 1.69225 -0.51767 -0.607171
                  }
                }
              }
            }
          }
        }
      }
    }
  }
  JOINT rButtock
  {
    OFFSET -8.77824 4.35084 1.2192
    CHANNELS 3 Zrotation Xrotation Yrotation
    JOINT rThigh
    {
      OFFSET 0 -1.70687 -2.19456
      CHANNELS 3 Zrotation Xrotation Yrotation
      JOINT rShin
      {
        OFFSET 0 -36.8199 0.73152
        CHANNELS 3 Zrotation Xrotation Yrotation
        JOINT rFoot
        {
          OFFSET 0.73152 -45.1104 -5.12064
          CHANNELS 3 Zrotation Xrotation Yrotation
          End Site
          {
            OFFSET -1.1221 -3.69964 12.103
          }
        }
      }
    }
  }
  JOINT lButtock
  {
    OFFSET 8.77824 4.35084 1.2192
    CHANNELS 3 Zrotation Xrotation Yrotation
    JOINT lThigh
    {
      OFFSET 0 -1.70687 -2.19456
      CHANNELS 3 Zrotation Xrotation Yrotation
      JOINT lShin
      {
        OFFSET 0 -36.8199 0.73152
        CHANNELS 3 Zrotation Xrotation Yrotation
        JOINT lFoot
        {
          OFFSET -0.73152 -45.1104 -5.12064
          CHANNELS 3 Zrotation Xrotation Yrotation
          End Site
          {
            OFFSET 1.1221 -3.69964 12.103
          }
        }
      }
    }
  }
}
MOTION
Frames:	6
Frame Time:	0.03333
0.0 0.0 0.0 0.0 0.0 0.0 0.0 0.0 0.0 0.0 0.0 0.0 0.0 0.0 0.0 0.0 0.0 0.0 0.0 0.0 0.0 0.0 0.0 0.0 0.0 0.0 0.0 0.0 0.0 0.0 0.0 0.0 0.0 0.0 0.0 0.0 0.0 0.0 0.0 0.0 0.0 0.0 0.0 0.0 0.0 0.0 0.0 0.0 0.0 0.0 0.0 0.0 0.0 0.0 0.0 0.0 0.0 0.0 0.0 0.0 0.0 0.0 0.0 0.0 0.0 0.0 0.0 0.0 0.0 0.0 0.0 0.0 0.0 0.0 0.0 0.0 0.0 0.0 0.0 0.0 0.0 0.0 0.0 0.0 0.0 0.0 0.0 0.0 0.0 0.0 0.0 0.0 0.0 0.0 0.0 0.0 0.0 0.0 0.0 0.0 0.0 0.0 0.0 0.0 0.0 0.0 0.0 0.0 0.0 0.0 0.0 0.0 0.0 0.0 0.0 0.0 0.0 0.0 0.0 0.0 0.0 0.0 0.0 0.0 0.0 0.0 0.0 0.0 0.0 0.0 0.0 0.0
0.0069 15.851799999999999 -0.0504 0.184536 55.436167 -0.499471 -1.308496 3.596701 20.006911 -9.283161 -4.917767 37.901328 -178.425749 10.879393 -116.455539 -135.826813 40.567509 -166.260891 -25.611863 -5.891508 25.511975 -27.620621 -6.321486 25.322236 -109.619763 -1.014814 179.775018 157.484916 -7.623605 -176.364064 -169.989588 -0.12299 -12.923367 170.584681 20.204144 30.866627 -14.605906 -21.812199 -85.140831 22.431174 -54.917314 -0.291895 -16.889409 -6.883795 -72.783548 -168.449696 -28.537093 117.856203 92.953151 60.627914 -102.946441 -87.325269 66.3167 78.677325 -113.620884 -27.971581 -115.917178 -157.206431 -0.828602 176.233583 12.568741 31.957749 -15.169743 3.10859 0.074362 -1.092208 -62.356114 8.027405 -0.92427 -14.003515 0.567428 -4.626147 -50.799131 85.151297 -117.533286 74.098981 71.629423 102.633813 7.738536 -14.3923 40.401393 -174.473486 -58.99704 -106.609331 160.593471 -43.315673 -161.983374 -62.92135 -59.4224 -15.274591 171.177061 -28.871337 -161.848987 0.761337 12.573249 -4.347477 91.933688 -76.297747 89.799155 -8.186325 -21.708952 8.722278 159.305231 -40.179446 145.997707 -1.226224 -2.2385 0.90447 -5.411874 -40.566627 1.773503 10.714884 38.191718 162.983956 -0.749524 2.379848 -140.821279 -70.462268 20.402423 93.069169 -46.616842 0.308262 -89.675446 -0.792343 42.539593 -180.0 8.564655 -1.14336 97.849693 72.008281 13.476557 -127.680117
0.2504 31.0982 -0.1031 -175.529802 18.273467 -175.208869 -2.133877 29.515724 -146.942528 20.919145 43.281295 149.561303 163.209031 57.983138 -90.668539 -79.369661 15.972723 -130.874762 -37.077864 -8.978506 26.353711 -48.312535 -6.309857 14.012748 -128.620556 -28.484044 -174.431103 -31.78154 0.462169 -2.443042 164.649646 5.748103 -39.194494 12.386433 9.36405 -29.451796 -134.250368 2.669751 122.670174 -115.527689 -1.20226 62.35406 -109.488658 39.110023 164.069114 -6.022091 -5.330446 42.526352 83.441656 7.87473 -63.748146 -173.65113 -66.02878 156.293483 76.908389 21.489901 -49.313729 29.865242 -2.964028 -2.241832 -92.728469 27.067678 -108.72279 -36.103195 81.042266 57.758498 58.060192 76.816776 -90.590279 136.522466 9.208416 -128.093311 -96.848229 -75.060551 65.19767 -170.028304 58.764509 -128.665295 157.82093 -46.346162 -112.867658 115.113809 28.225328 -3.467166 55.397635 -49.181141 148.890598 169.840299 69.427112 -114.935586 -179.804289 57.772482 107.115613 7.448227 49.812692 3.477068 -92.927581 65.609991 45.17971 69.648988 75.412611 -94.733145 -84.140407 6.431915 40.511169 25.3778 -43.084104 13.99032 -3.881521 9.36335 22.637756 31.883088 -68.900827 -146.307244 -80.842119 -67.252695 -165.491167 29.692099 50.76398 -163.650755 141.373687 56.435915 43.798798 158.087742 18.303754 -0.0 -34.806429 73.598216 115.699515 123.355982 5.226347 14.291833
0.5295 30.9054 0.048299999999999996 -178.8577 43.696708 -178.970255 -9.252886 34.610767 -31.496818 33.370179 -15.383948 39.83733 177.928455 39.35815 -44.257277 -78.505881 75.019277 -156.099147 -29.281408 -1.897201 7.253272 -37.523083 0.404923 -1.192038 -13.558746 57.849744 41.195677 -172.887545 -48.719163 132.790424 -108.831007 -57.190266 70.287337 159.632775 -6.154272 110.587503 -160.259175 75.04976 160.465021 31.576649 -16.401478 44.038941 104.431061 63.515082 -65.498653 -112.084933 -19.217897 125.748676 -55.365108 -24.201522 -133.849267 -0.378158 -27.144098 2.812014 179.014443 40.009406 -101.997159 -55.884196 46.391983 46.989914 59.074788 -13.188706 -42.223715 -167.415842 34.016501 -132.509648 107.657526 4.378452 -166.165449 34.472613 -8.490988 -2.552298 164.671252 -0.409797 40.7633 -45.207423 -33.382878 7.180571 -19.635176 -10.58286 20.625965 34.036376 -28.861117 136.368341 -94.519087 79.862728 48.845837 63.703213 59.609966 -71.515139 45.279673 -32.697687 149.491919 153.952474 -0.741085 -87.041986 -97.011303 68.28646 51.149099 147.202428 -4.690017 -163.242061 -59.04113 -23.672794 50.006392 21.547444 -20.904802 -24.094752 -19.844804 -0.714769 27.386504 37.624913 -70.335764 -140.69855 -36.660226 -55.163284 146.300599 -113.410723 24.896393 27.867342 100.761955 40.334697 48.046095 -151.507883 36.078865 -42.66624 -60.798933 53.104615 -81.6917 -76.267099 -3.292978 -113.340231
0.6257 33.077600000000004 -0.0781 177.813855 44.306586 177.61875 -6.739853 30.128501 3.151134 23.376745 -29.507631 -1.9075 -165.739448 35.950876 114.869459 90.244585 -49.090797 21.559605 -45.514405 4.249712 -10.109182 -49.527533 4.594774 -9.940869 -99.641699 58.970661 116.886696 -8.177082 21.321981 51.41765 -2.823059 12.685069 -156.48147 171.673029 36.356106 129.129547 -123.189196 10.056016 126.616807 -163.01107 -14.136648 66.096187 52.910435 -30.194272 -71.325627 -9.325942 21.83937 -39.307703 156.95355 50.328087 -101.247087 76.714745 -78.111297 67.241261 -69.425496 -21.774546 -102.628359 -50.967189 -17.448807 -64.268423 -116.191663 49.78839 -130.784282 101.403162 -83.807546 103.505256 26.781838 -79.043355 93.928347 92.900053 -39.057984 113.401549 145.471412 38.885397 43.204556 -99.506278 -50.197442 -71.164721 174.537041 -54.530737 -99.60716 68.693711 44.921695 48.721685 42.092368 -60.790038 170.649157 32.488472 -27.187977 9.503426 -134.020763 53.636386 48.876198 128.415328 -64.978144 175.282505 144.106608 24.935262 132.041859 157.73498 -84.813996 101.391009 -98.900751 -36.218757 33.161458 31.388795 45.265502 -21.352476 -73.476322 12.752716 -26.922328 116.289538 -22.141992 -130.261878 25.607546 -85.972823 58.215276 -85.75954 61.461349 -158.600159 111.499917 44.18851 43.732891 -174.392631 32.893528 -180.0 -4.913902 -73.339808 39.907721 -69.501286 31.278468 -97.625631
0.697 41.7509 -0.2974 175.971989 43.71635 177.967387 -8.132238 26.877005 -162.458978 -19.918702 47.568138 174.197354 166.419371 34.47185 -139.999128 -77.935832 -57.383356 -131.638472 -73.769851 10.837439 -14.408817 -49.737054 6.639262 -14.265556 -134.845114 74.384129 150.460469 -136.021282 19.828073 135.571044 -114.337232 -84.042525 93.394245 172.63664 22.303022 126.625772 0.011805 63.64602 6.192283 -117.21676 -33.603174 102.468695 -40.714354 -22.207317 -164.487534 -89.314513 39.288834 54.899913 -120.62403 32.49882 -149.074676 -16.053625 -43.234703 -4.134331 48.788013 32.503201 -22.335357 -116.292707 -34.739473 173.265641 29.776395 -13.701671 -6.640752 -179.67511 48.764812 -72.969328 -25.435367 61.918553 -16.855039 -64.628436 -5.4607 -58.372662 -179.801195 11.827819 -10.205461 -163.468142 33.908745 -153.568078 141.881341 -51.583304 -79.398377 75.454835 -39.597352 31.72875 15.816963 67.250164 -85.901918 59.339042 22.381294 -84.859478 101.129434 64.128569 154.898543 30.091057 -4.138689 6.377381 -11.361984 0.64064 36.830357 -93.862223 26.906436 1.403549 171.416317 60.915123 16.412567 89.760092 -5.261146 69.983266 -64.184181 11.41689 -25.655191 108.704609 -26.440648 29.888063 -78.571611 74.864789 166.634067 -176.450947 56.60235 65.406519 1.855335 7.625198 -13.718797 -39.132285 -32.135134 -180.0 -54.590522 -51.11598 -133.407552 -32.768521 -61.689319 -23.061031
